{"title":"Ayman, Hisham, Mars Lasar - A Whisper Across The Sand (1999)","uid":4086728,"size":435791366,"categoryP":"audio","categoryS":"music","magnet":"?xt=urn:btih:9e441fe2ce1bf124b120d920c9dd465b06254f8a&amp;dn=Ayman%2C+Hisham%2C+Mars+Lasar+-+A+Whisper+Across+The+Sand+%281999%29&amp;tr=udp%3A%2F%2Ftracker.openbittorrent.com%3A80&amp;tr=udp%3A%2F%2Fopen.demonii.com%3A1337&amp;tr=udp%3A%2F%2Ftracker.coppersurfer.tk%3A6969&amp;tr=udp%3A%2F%2Fexodus.desync.com%3A6969","seeders":0,"leechers":0,"uploader":"Drakkon","files":18,"time":1205856540,"description":"Artist...............: Ayman, Hisham, Mars Lasar\nAlbum................: A Whisper Across The Sand\nGenre................: New Age, World\nYear.................: 1999\nCodec................: Flac, lossless\n\n------------------Log:---------------------\n\nExact Audio Copy V0.99 prebeta 3 from 28. July 2007\n\nEAC extraction logfile from 15. January 2008, 23:58\n\nAyman, Hisham &amp; Mars Lasar / A Whisper Across The Sand\n\nUsed drive  : Optiarc DVD RW AD-7170A   Adapter: 0  ID: 1\n\nRead mode               : Secure\nUtilize accurate stream : Yes\nDefeat audio cache      : Yes\nMake use of C2 pointers : No\n\nRead offset correction                      : 48\nOverread into Lead-In and Lead-Out          : No\nFill up missing offset samples with silence : Yes\nDelete leading and trailing silent blocks   : No\nNull samples used in CRC calculations       : Yes\nUsed interface                              : Installed external ASPI interface\n\nUsed output format : Internal WAV Routines\nSample format      : 44.100 Hz; 16 Bit; Stereo\n\n\nTOC of the extracted CD\n\n     Track |   Start  |  Length  | Start sector | End sector \n    ---------------------------------------------------------\n        1  |  0:00.00 |  4:02.15 |         0    |    18164   \n        2  |  4:02.15 |  5:17.60 |     18165    |    41999   \n        3  |  9:20.00 |  4:25.43 |     42000    |    61917   \n        4  | 13:45.43 |  6:46.44 |     61918    |    92411   \n        5  | 20:32.12 |  4:50.01 |     92412    |   114162   \n        6  | 25:22.13 |  3:51.20 |    114163    |   131507   \n        7  | 29:13.33 |  4:47.72 |    131508    |   153104   \n        8  | 34:01.30 |  7:17.32 |    153105    |   185911   \n        9  | 41:18.62 |  4:13.09 |    185912    |   204895   \n       10  | 45:31.71 |  4:48.71 |    204896    |   226566   \n       11  | 50:20.67 |  5:13.71 |    226567    |   250112   \n       12  | 55:34.63 |  5:04.10 |    250113    |   272922   \n       13  | 60:38.73 |  5:12.47 |    272923    |   296369   \n\n\nRange status and errors\n\nSelected range\n\n     Filename C:TempAyman, Hisham &amp; Mars Lasar - A Whisper Across The Sand.wav\n\n     Peak level 98.8 %\n     Range quality 99.9 %\n     Copy CRC 57099009\n     Copy OK\n\nNo errors occurred\n\nEnd of status report","torrent":{"xt":"urn:btih:9e441fe2ce1bf124b120d920c9dd465b06254f8a","amp;dn":"Ayman%2C+Hisham%2C+Mars+Lasar+-+A+Whisper+Across+The+Sand+%281999%29","amp;tr":["udp%3A%2F%2Ftracker.openbittorrent.com%3A80","udp%3A%2F%2Fopen.demonii.com%3A1337","udp%3A%2F%2Ftracker.coppersurfer.tk%3A6969","udp%3A%2F%2Fexodus.desync.com%3A6969"],"infoHash":"9e441fe2ce1bf124b120d920c9dd465b06254f8a","infoHashBuffer":{"type":"Buffer","data":[158,68,31,226,206,27,241,36,177,32,217,32,201,221,70,91,6,37,79,138]},"announce":[],"urlList":[]}}